<?xml version="1.0" encoding="utf-8"?>
<!-- Generator: Adobe Illustrator 23.0.1, SVG Export Plug-In . SVG Version: 6.00 Build 0)  -->
<svg version="1.1" id="Layer_1" xmlns="http://www.w3.org/2000/svg" xmlns:xlink="http://www.w3.org/1999/xlink" x="0px" y="0px"
	 viewBox="0 0 692.4 775.2" style="enable-background:new 0 0 692.4 775.2;" xml:space="preserve">
<style type="text/css">
	.st0{fill:#9717E0;}
</style>
<path class="st0" d="M346.4,4c0,0-169.4,149.1-339.7,149.1c0,146.6,0.8,289.7,63.5,400.7C134.6,667.3,260,747,346.4,766.5
	c85.6-22,205.9-102.5,269.4-213.5s70.3-252.5,70.3-399.9C515.9,153.1,346.4,4,346.4,4z M571.8,528.4
	c-53.4,92.3-153.3,162.7-226.2,185.5c-76.2-22-179.6-94-230.4-184.7C64.3,439.4,59.2,320,58.4,200.5c122-16.9,234.7-90.6,288-131.3
	c54.2,40.7,166,114.4,288,131.3C632.8,319.1,623.4,437.7,571.8,528.4z"/>
<path class="st0" d="M515.9,268.3c-15.2-11-36.4-7.6-47.4,6.8l-160.1,216l-75.4-76.2c-12.7-13.6-34.7-13.6-48.3,0
	c-13.6,12.7-13.6,34.7,0,48.3l102.5,104.2c6.8,6.8,15.2,10.2,24.6,10.2c0.8,0,1.7,0,2.5,0c10.2-0.8,18.6-5.9,24.6-13.6l183-248.2
	C533.6,300.5,530.3,279.3,515.9,268.3z"/>
</svg>
