<?xml version="1.0" encoding="utf-8"?>
<!-- Generator: Adobe Illustrator 23.0.1, SVG Export Plug-In . SVG Version: 6.00 Build 0)  -->
<svg version="1.1" id="Layer_1" xmlns="http://www.w3.org/2000/svg" xmlns:xlink="http://www.w3.org/1999/xlink" x="0px" y="0px"
	 viewBox="0 0 692.4 775.2" style="enable-background:new 0 0 692.4 775.2;" xml:space="preserve">
<style type="text/css">
	.st0{fill:#9717E0;}
</style>
<path class="st0" d="M193,326.8H29.8c-8.8,0-16,7.1-16,16v346.1c0,8.8,7.1,16,16,16H193c8.8,0,16-7.1,16-16l0,0v-25.5h350.9
	c41.6,0.1,77.1-30,83.8-71l35-200c2.4-13.2,1.9-26.9-1.5-39.9c-11.9-43.2-51.2-73.2-96.1-73.3H435.3V146.5
	c0-44.9-36.4-81.3-81.4-81.4h-14.3c-22,0-39.9,17.9-39.9,39.9v94.7c-1,44.4-17.3,87-46.2,120.8l-44.7,34.9v-12.7
	C208.9,333.9,201.8,326.8,193,326.8L193,326.8z M177,672.8H45.7V358.7H177V672.8z M274.6,344.6c0.9-0.7,1.7-1.5,2.4-2.3
	c34.3-39.7,53.6-90,54.7-142.4v-94.8c0-4.4,3.6-8,8-8h14.3c27.3,0,49.4,22.2,49.4,49.4v148.7c0,8.8,7.1,16,16,16h161.7
	c30.5,0.1,57.2,20.4,65.3,49.8c2.1,8.5,2.4,17.4,0.8,26l-35,200c-4.2,25.6-26.4,44.4-52.4,44.3H208.8V395.9L274.6,344.6z"/>
</svg>
