<?xml version="1.0" encoding="utf-8"?>
<!-- Generator: Adobe Illustrator 23.0.1, SVG Export Plug-In . SVG Version: 6.00 Build 0)  -->
<svg version="1.1" id="Layer_1" xmlns="http://www.w3.org/2000/svg" xmlns:xlink="http://www.w3.org/1999/xlink" x="0px" y="0px"
	 viewBox="0 0 692.4 775.2" style="enable-background:new 0 0 692.4 775.2;" xml:space="preserve">
<style type="text/css">
	.st0{fill:#9717E0;}
</style>
<g>
	<path class="st0" d="M672.8,401.8c0.2-0.3,0.5-0.7,0.7-1c0.3-0.3,0.5-0.9,0.7-1.2c0.2-0.3,0.5-0.7,0.7-1.2c0.2-0.3,0.3-0.9,0.7-1.2
		c0.2-0.3,0.3-0.9,0.5-1.2c0.2-0.5,0.3-0.9,0.5-1.4c0.2-0.3,0.3-0.9,0.3-1.4c0.2-0.5,0.2-0.9,0.3-1.4c0.2-0.3,0.2-0.9,0.3-1.2
		c0.2-0.5,0.2-1,0.2-1.5c0-0.3,0.2-0.7,0.2-1.2c0-0.9,0.2-1.9,0.2-2.7l0,0l0,0c0-0.9,0-1.9-0.2-2.7c0-0.3-0.2-0.7-0.2-1.2
		s-0.2-1-0.2-1.5c0-0.5-0.2-0.9-0.3-1.2c-0.2-0.5-0.2-0.9-0.3-1.4c-0.2-0.5-0.3-0.9-0.3-1.4c-0.2-0.5-0.3-0.9-0.5-1.4
		c-0.2-0.3-0.3-0.9-0.5-1.2c-0.2-0.5-0.3-0.9-0.7-1.2c-0.2-0.3-0.3-0.9-0.7-1.2c-0.2-0.3-0.5-0.9-0.7-1.2c-0.2-0.3-0.5-0.7-0.7-1
		c-0.3-0.3-0.5-0.7-0.9-1.2c-0.3-0.3-0.5-0.7-0.9-1c-0.2-0.2-0.2-0.3-0.3-0.5l-88.2-98c-10.8-12-29.2-13-41.2-2.2
		c-12,10.8-13,29.2-2.2,41.2l44.5,49.4H211.1c-16.1,0-29.2,13-29.2,29.2s13,29.2,29.2,29.2h372.5L539.1,464
		c-10.8,12-9.8,30.4,2.2,41.2c5.5,5,12.5,7.6,19.6,7.6c8.1,0,16-3.3,21.6-9.6l88.2-98c0.2-0.2,0.3-0.3,0.3-0.5
		c0.3-0.3,0.5-0.7,0.9-1C672.3,402.5,672.5,402.2,672.8,401.8z"/>
	<path class="st0" d="M405.4,526.8c-16.1,0-29.2,13-29.2,29.2V621c0,21.8-17.9,38.6-39.6,38.6H113.8c-21.8,0-39.6-16.8-39.6-38.6
		V149c0-21.8,17.9-38.6,39.6-38.6h222.8c21.8,0,39.6,16.8,39.6,38.6V214c0,16.1,13,29.2,29.2,29.2s29.2-13,29.2-29.2V149
		c0-53.9-43.9-97-98-97H113.8c-53.9,0-98,43.1-98,97v472c0,53.9,44.1,97,98,97h222.8c53.9,0,98-43.1,98-97V556
		C434.6,539.8,421.5,526.8,405.4,526.8z"/>
</g>
</svg>
