<?xml version="1.0" encoding="utf-8"?>
<!-- Generator: Adobe Illustrator 23.0.1, SVG Export Plug-In . SVG Version: 6.00 Build 0)  -->
<svg version="1.1" id="Layer_1" xmlns="http://www.w3.org/2000/svg" xmlns:xlink="http://www.w3.org/1999/xlink" x="0px" y="0px"
	 viewBox="0 0 692.4 775.2" style="enable-background:new 0 0 692.4 775.2;" xml:space="preserve">
<style type="text/css">
	.st0{fill:#9717E0;}
</style>
<g>
	<path class="st0" d="M83.9,144.6h527.5c41.7,0,75.9,32.6,75.9,72.3V566c0,39.8-34.2,72.3-75.9,72.3H83.9C42.2,638.3,8,605.8,8,566
		V216.9C8,177.1,42.2,144.6,83.9,144.6z M44.1,267.6h607.2v-50.6c0-19.9-19-38-39.8-38H83.9c-20.9,0-39.8,18.1-39.8,38V267.6z
		 M651.3,348.9H44.1v217c0,21.7,19,38,39.8,38h527.5c20.9,0,39.8-16.3,39.8-38V348.9z"/>
	<path class="st0" d="M131.3,468.3c-9.5,0-17.1-7.2-17.1-16.3c0-10.9,7.6-18.1,17.1-18.1h161.3c9.5,0,19,7.2,19,18.1
		c0,9-9.5,16.3-19,16.3H131.3z"/>
	<path class="st0" d="M131.3,546.1c-9.5,0-17.1-9-17.1-18.1c0-9,7.6-18.1,17.1-18.1h112c9.5,0,19,9,19,18.1c0,9-9.5,18.1-19,18.1
		H131.3z"/>
</g>
</svg>
