<?xml version="1.0" encoding="utf-8"?>
<!-- Generator: Adobe Illustrator 23.0.1, SVG Export Plug-In . SVG Version: 6.00 Build 0)  -->
<svg version="1.1" id="Layer_1" xmlns="http://www.w3.org/2000/svg" xmlns:xlink="http://www.w3.org/1999/xlink" x="0px" y="0px"
	 viewBox="0 0 37.8 31.5" style="enable-background:new 0 0 37.8 31.5;" xml:space="preserve">
<style type="text/css">
	.st0{fill:#9717E0;}
</style>
<g>
	<path class="st0" d="M19,21.6c-3.2,0-5.8-2.6-5.8-5.8S15.8,10,19,10s5.8,2.6,5.8,5.8S22.2,21.6,19,21.6z M19,11.6
		c-2.3,0-4.1,1.9-4.1,4.1s1.9,4.1,4.1,4.1s4.1-1.9,4.1-4.1S21.3,11.6,19,11.6z"/>
	<path class="st0" d="M18.7,31.5c-1,0-2.1-0.1-3.1-0.3l-0.5-0.1L15,30.6c-0.4-1.5-1.4-2.7-2.8-3.5s-2.9-1-4.3-0.7l-0.5,0.1l-0.3-0.4
		c-1.4-1.6-2.4-3.4-3.1-5.4l-0.2-0.4l0.3-0.4c1-1.2,1.6-2.6,1.6-4.2s-0.6-3-1.6-4.2l-0.3-0.4L4,10.8c0.7-2,1.7-3.8,3.1-5.4L7.4,5
		l0.5,0.1c1.5,0.3,3,0.1,4.3-0.7c1.3-0.8,2.3-2,2.8-3.5l0.2-0.4l0.5-0.1c1-0.2,2.1-0.3,3.1-0.3c1.1,0,2.6,0.1,3.6,0.3l0.5,0.1
		L23,0.9c0.4,1.5,1.4,2.7,2.8,3.5s2.9,1,4.4,0.7L30.7,5L31,5.4c1.4,1.6,2.4,3.4,3.1,5.4l0.2,0.4l-0.3,0.4c-1,1.2-1.6,2.6-1.6,4.2
		s0.6,3,1.6,4.2l0.3,0.4l-0.2,0.4c-0.7,2-1.7,3.8-3.1,5.4l-0.3,0.4l-0.5-0.1c-1.5-0.3-3-0.1-4.4,0.7c-1.3,0.8-2.3,2-2.8,3.5
		l-0.2,0.4l-0.5,0.1C21.4,31.4,19.8,31.5,18.7,31.5z M16.5,29.6c0.8,0.1,1.5,0.2,2.3,0.2c0.8,0,2-0.1,2.9-0.2c0.6-1.7,1.8-3,3.3-3.9
		c1.5-0.9,3.3-1.2,5-1c1-1.2,1.8-2.6,2.3-4c-1.1-1.4-1.7-3.1-1.7-4.9c0-1.8,0.6-3.5,1.7-4.9C31.7,9.4,31,8,30,6.8
		c-1.7,0.3-3.5-0.1-5-1c-1.5-0.9-2.7-2.3-3.3-3.9c-0.9-0.1-2.1-0.2-2.9-0.2c-0.8,0-1.5,0.1-2.3,0.2c-0.6,1.7-1.8,3.1-3.3,4
		c-1.5,0.9-3.3,1.2-5,1c-1,1.2-1.8,2.6-2.3,4c1.1,1.3,1.7,3.1,1.7,4.9c0,1.8-0.6,3.5-1.7,4.9c0.5,1.5,1.3,2.8,2.3,4
		c1.7-0.3,3.5,0.1,5,1C14.7,26.6,15.8,28,16.5,29.6z"/>
</g>
</svg>
