<?xml version="1.0" encoding="utf-8"?>
<!-- Generator: Adobe Illustrator 23.0.1, SVG Export Plug-In . SVG Version: 6.00 Build 0)  -->
<svg version="1.1" id="Layer_1" xmlns="http://www.w3.org/2000/svg" xmlns:xlink="http://www.w3.org/1999/xlink" x="0px" y="0px"
	 viewBox="0 0 692.4 775.2" style="enable-background:new 0 0 692.4 775.2;" xml:space="preserve">
<style type="text/css">
	.st0{fill-rule:evenodd;clip-rule:evenodd;fill:#9717E0;}
</style>
<g>
	<g transform="translate(0.000000, -1.000000)">
		<path class="st0" d="M209.8,247.7H106.7c-37.8,0-68.4,30.6-68.4,68.3v377.9c0,37.7,30.6,68.3,68.4,68.3h480.6
			c37.8,0,68.4-30.6,68.4-68.3V316c0-37.7-30.6-68.3-68.4-68.3H484.2v51.5h120.1v411.6H89.7V299.1h120.1V247.7z"/>
		<path class="st0" d="M347,41.8L347,41.8c14.2,0,25.7,11.5,25.7,25.7V462c0,14.2-11.5,25.7-25.7,25.7l0,0
			c-14.2,0-25.7-11.5-25.7-25.7V67.6C321.3,53.4,332.8,41.8,347,41.8z"/>
		<path class="st0" d="M365.2,17.4L365.2,17.4c10,10,10,26.3,0,36.4L256,162.9c-10,10-26.3,10-36.4,0l0,0c-10-10-10-26.3,0-36.4
			L328.8,17.4C338.9,7.4,355.1,7.4,365.2,17.4z"/>
		<path class="st0" d="M474.3,162.9L474.3,162.9c-10,10-26.3,10-36.4,0L328.8,53.8c-10-10-10-26.3,0-36.4l0,0c10-10,26.3-10,36.4,0
			l109.1,109.1C484.4,136.6,484.4,152.9,474.3,162.9z"/>
	</g>
</g>
</svg>
