<?xml version="1.0" encoding="utf-8"?>
<!-- Generator: Adobe Illustrator 23.0.1, SVG Export Plug-In . SVG Version: 6.00 Build 0)  -->
<svg version="1.1" id="Layer_1" xmlns="http://www.w3.org/2000/svg" xmlns:xlink="http://www.w3.org/1999/xlink" x="0px" y="0px"
	 viewBox="0 0 37.8 31.5" style="enable-background:new 0 0 37.8 31.5;" xml:space="preserve">
<style type="text/css">
	.st0{fill:#9717E0;}
</style>
<g>
	<g>
		<path class="st0" d="M12,16.7c-3.3,0-6-2.7-6-6s2.7-6,6-6s6,2.7,6,6S15.3,16.7,12,16.7z M12,6.7c-2.2,0-4,1.8-4,4s1.8,4,4,4
			s4-1.8,4-4S14.2,6.7,12,6.7z"/>
	</g>
	<g>
		<path class="st0" d="M23,30.7H1v-4.2c0-4.9,3.9-8.8,8.8-8.8h4.4c4.9,0,8.8,3.9,8.8,8.8V30.7z M3,28.7h18v-2.2
			c0-3.8-3.1-6.8-6.8-6.8H9.8C6,19.7,3,22.8,3,26.5V28.7z"/>
	</g>
</g>
<g>
	<g>
		<path class="st0" d="M26,12.7c-3.3,0-6-2.7-6-6s2.7-6,6-6s6,2.7,6,6S29.3,12.7,26,12.7z M26,2.7c-2.2,0-4,1.8-4,4s1.8,4,4,4
			s4-1.8,4-4S28.2,2.7,26,2.7z"/>
	</g>
	<g>
		<path class="st0" d="M37,26.7H25v-2h10v-2.2c0-3.8-3.1-6.8-6.8-6.8h-4.4c-1.2,0-2.3,0.3-3.3,0.9l-1-1.7c1.3-0.7,2.8-1.1,4.3-1.1
			h4.4c4.9,0,8.8,3.9,8.8,8.8V26.7z"/>
	</g>
</g>
</svg>
