<?xml version="1.0" encoding="utf-8"?>
<!-- Generator: Adobe Illustrator 23.0.1, SVG Export Plug-In . SVG Version: 6.00 Build 0)  -->
<svg version="1.1" id="Layer_1" xmlns="http://www.w3.org/2000/svg" xmlns:xlink="http://www.w3.org/1999/xlink" x="0px" y="0px"
	 viewBox="0 0 857.5 775.2" style="enable-background:new 0 0 857.5 775.2;" xml:space="preserve">
<style type="text/css">
	.st0{fill:#9717E0;}
</style>
<g>
	<g>
		<g>
			<g>
				<path class="st0" d="M112.1,320.2c4.7-21.7,11.3-43,19.9-63.5c-1,2.4-2,4.8-3,7.2c6.8-16.1,14.8-31.7,23.9-46.6
					c4.4-7.3,9.1-14.4,14.1-21.3c1.2-1.7,2.4-3.4,3.6-5c0.8-1.1,5.4-7.1,1.8-2.5c-3.6,4.7,1-1.3,1.9-2.4c1.4-1.8,2.9-3.6,4.4-5.3
					c11.2-13.5,23.5-26.1,36.6-37.7c3.1-2.8,6.3-5.5,9.5-8.1c1.6-1.3,3.2-2.6,4.9-3.9c0.9-0.7,1.8-1.5,2.7-2.2c-1.3,1-2.6,2-3.9,3
					c0.7-0.6,1.5-1.1,2.2-1.7c6.9-5.2,14-10.1,21.3-14.8c16.9-10.9,34.8-20.2,53.3-28.1c-2.4,1-4.8,2-7.2,3
					c29.1-12.2,59.6-20.4,90.8-24.6c-2.7,0.4-5.3,0.7-8,1.1c30.9-4,62.1-4,92.9,0.1c-2.7-0.4-5.3-0.7-8-1.1
					c30.9,4.2,61.1,12.6,89.9,24.7c-2.4-1-4.8-2-7.2-3c16.1,6.9,31.6,14.8,46.5,24c7.2,4.4,14.3,9.1,21.2,14.1
					c3.3,2.3,6.5,4.8,9.7,7.2c-8.7-6.5-1.6-1.2,0.3,0.3c1.7,1.4,3.5,2.8,5.2,4.3c13.4,11.3,26,23.5,37.6,36.6c2.7,3,5.3,6.1,7.9,9.3
					c1.4,1.7,2.9,3.5,4.3,5.3c0.6,0.7,1.1,1.4,1.7,2.1c-3.2-4.1-4-5.2-2.6-3.4c0.4,0.5,0.8,1.1,1.2,1.6c5.2,6.9,10.1,14,14.8,21.2
					c11,17.1,20.4,35.1,28.3,53.7c-1-2.4-2-4.8-3-7.2c8,19.3,14.4,39.2,19,59.5c3.5,15.3,22,25.8,36.9,21
					c16.1-5.2,24.7-20.5,21-36.9c-14.9-65.8-47.7-127-93.8-176.2c-44.6-47.6-101.9-83.1-164-102.8C476.1,0.7,406.3-1.3,340.4,13.7
					c-67,15.3-129.5,49.6-178.9,97.4c-48,46.4-83.5,106-101.8,170.3c-2.2,7.6-4,15.3-5.7,23c-3.3,15.3,4.5,33.2,21,36.9
					C90.3,344.6,108.6,336.6,112.1,320.2L112.1,320.2z"/>
			</g>
		</g>
		<g>
			<g>
				<path class="st0" d="M792,154.3c-14.9,42.6-29.8,85.3-44.7,127.9c-2.1,6-4.2,12-6.3,18.1c12.3-7,24.6-14,36.9-21
					c-42.6-14.9-85.3-29.8-127.9-44.7c-6-2.1-12-4.2-18.1-6.3c-14.8-5.2-33.5,5.9-36.9,21c-3.8,16.7,5.1,31.4,21,36.9
					c42.6,14.9,85.3,29.8,127.9,44.7c6,2.1,12,4.2,18.1,6.3c6.8,2.4,17.1,0.8,23.1-3c6.8-4.4,11.1-10.2,13.8-17.9
					c14.9-42.6,29.8-85.3,44.7-127.9c2.1-6,4.2-12,6.3-18.1c5.2-14.8-5.9-33.5-21-36.9C812.2,129.6,797.6,138.5,792,154.3L792,154.3
					z"/>
			</g>
		</g>
	</g>
	<g>
		<g>
			<g>
				<path class="st0" d="M747,446.6c-4.7,21.7-11.3,43-19.9,63.5c1-2.4,2-4.8,3-7.2c-6.8,16.1-14.8,31.7-23.9,46.6
					c-4.4,7.3-9.1,14.4-14.1,21.3c-1.2,1.7-2.4,3.4-3.6,5c-0.8,1.1-5.4,7.1-1.8,2.5c3.6-4.7-1,1.3-1.9,2.4c-1.4,1.8-2.9,3.6-4.4,5.3
					c-11.2,13.5-23.5,26.1-36.6,37.7c-3.1,2.8-6.3,5.5-9.5,8.1c-1.6,1.3-3.2,2.6-4.9,3.9c-0.9,0.7-1.8,1.5-2.7,2.2
					c1.3-1,2.6-2,3.9-3c-0.7,0.6-1.5,1.1-2.2,1.7c-6.9,5.2-14,10.1-21.3,14.8c-16.9,10.9-34.8,20.2-53.3,28.1c2.4-1,4.8-2,7.2-3
					c-29.1,12.2-59.6,20.4-90.8,24.6c2.7-0.4,5.3-0.7,8-1.1c-30.9,4-62.1,4-92.9-0.1c2.7,0.4,5.3,0.7,8,1.1
					c-30.9-4.2-61.1-12.6-89.9-24.7c2.4,1,4.8,2,7.2,3c-16.1-6.9-31.6-14.8-46.5-24c-7.2-4.4-14.3-9.1-21.2-14.1
					c-3.3-2.3-6.5-4.8-9.7-7.2c8.7,6.5,1.6,1.2-0.3-0.3c-1.7-1.4-3.5-2.8-5.2-4.3c-13.4-11.3-26-23.5-37.6-36.6
					c-2.7-3-5.3-6.1-7.9-9.3c-1.4-1.7-2.9-3.5-4.3-5.3c-0.6-0.7-1.1-1.4-1.7-2.1c3.2,4.1,4,5.2,2.6,3.4c-0.4-0.5-0.8-1.1-1.2-1.6
					c-5.2-6.9-10.1-14-14.8-21.2c-11-17.1-20.4-35.1-28.3-53.7c1,2.4,2,4.8,3,7.2c-8-19.3-14.4-39.2-19-59.5
					c-3.5-15.3-22-25.8-36.9-21c-16.1,5.2-24.7,20.5-21,36.9c14.9,65.8,47.7,127,93.8,176.2c44.6,47.6,101.9,83.1,164,102.8
					c64.6,20.5,134.4,22.5,200.3,7.5c67-15.3,129.5-49.6,178.9-97.4c48-46.4,83.5-106,101.8-170.3c2.2-7.6,4-15.3,5.7-23
					c3.3-15.3-4.5-33.2-21-36.9C768.8,422.2,750.5,430.2,747,446.6L747,446.6z"/>
			</g>
		</g>
		<g>
			<g>
				<path class="st0" d="M67.1,612.5c14.9-42.6,29.8-85.3,44.7-127.9c2.1-6,4.2-12,6.3-18.1c-12.3,7-24.6,14-36.9,21
					c42.6,14.9,85.3,29.8,127.9,44.7c6,2.1,12,4.2,18.1,6.3c14.8,5.2,33.5-5.9,36.9-21c3.8-16.7-5.1-31.4-21-36.9
					c-42.6-14.9-85.3-29.8-127.9-44.7c-6-2.1-12-4.2-18.1-6.3c-6.8-2.4-17.1-0.8-23.1,3c-6.8,4.4-11.1,10.2-13.8,17.9
					c-14.9,42.6-29.8,85.3-44.7,127.9c-2.1,6-4.2,12-6.3,18.1c-5.2,14.8,5.9,33.5,21,36.9C47,637.3,61.6,628.4,67.1,612.5
					L67.1,612.5z"/>
			</g>
		</g>
	</g>
</g>
</svg>
